<?xml version="1.0" encoding="utf-8"?>
<!-- Generator: Adobe Illustrator 26.5.0, SVG Export Plug-In . SVG Version: 6.00 Build 0)  -->
<svg version="1.1" id="Layer_1" xmlns="http://www.w3.org/2000/svg" xmlns:xlink="http://www.w3.org/1999/xlink" x="0px" y="0px"
	 viewBox="0 0 60 30.4" enable-background="new 0 0 60 30.4" xml:space="preserve">
<polygon id="fullLogo-11" fill="#FFFFFF" points="51.14,30.1 59.79,30.1 59.79,21.45 "/>
<g>
	<rect x="38.12" y="10.89" fill="#FFFFFF" width="7.82" height="8.2"/>
	<path fill="#FFFFFF" d="M12.34,0.39L0.21,12.52v17.5h47.44l12.1-12.1V0.39H12.34z M24.26,19.96c0.02,0.41-0.3,0.77-0.72,0.78
		c-0.03,0-0.07,0-0.1,0c-0.4,0.03-0.75-0.28-0.78-0.68c0-0.03,0-0.07,0-0.1v-5.98c0-0.34,0.11-0.67,0.33-0.94l0.33-0.41l0.03-0.03
		c0.14-0.14,0.26-0.26,0.44-0.26c0.08,0,0.48,0.03,0.48,0.62L24.26,19.96z M24.14,10.13l-4.89,6.11c-0.18,0.28-0.49,0.45-0.82,0.47
		c-0.32-0.03-0.62-0.2-0.81-0.46l-3.6-4.35v8.06c0.02,0.41-0.3,0.77-0.72,0.78c-0.03,0-0.07,0-0.1,0c-0.4,0.03-0.75-0.28-0.78-0.68
		c0-0.03,0-0.07,0-0.1v-9.82c-0.03-0.4,0.28-0.75,0.68-0.78c0.03,0,0.07,0,0.1,0c0.45,0,0.87,0.2,1.15,0.55l4.07,4.94l4.03-5.03
		c0.22-0.29,0.57-0.46,0.94-0.45h0.41c0.25-0.01,0.45,0.19,0.46,0.43c0,0.01,0,0.01,0,0.02C24.26,9.92,24.22,10.04,24.14,10.13z
		 M35.73,19.27c0.07,0.69-0.44,1.31-1.13,1.37c-0.09,0.01-0.17,0.01-0.26,0h-7.89c-0.69,0.07-1.3-0.43-1.37-1.11
		c-0.01-0.09-0.01-0.17,0-0.26v-9.23c-0.02-0.41,0.3-0.76,0.72-0.78c0.03,0,0.07,0,0.1,0c0.4-0.03,0.75,0.28,0.78,0.68
		c0,0.03,0,0.07,0,0.1v9.06h7.45v-9.06c-0.02-0.41,0.3-0.77,0.72-0.78c0.03,0,0.07,0,0.1,0c0.4-0.03,0.75,0.28,0.78,0.68
		c0,0.03,0,0.07,0,0.1V19.27z M47.54,19.27c0.07,0.69-0.43,1.3-1.11,1.37c-0.09,0.01-0.17,0.01-0.26,0h-8.28
		c-0.69,0.07-1.3-0.43-1.37-1.11c-0.01-0.09-0.01-0.17,0-0.26v-8.54c-0.07-0.69,0.43-1.3,1.11-1.37c0.09-0.01,0.17-0.01,0.26,0h8.28
		c0.69-0.07,1.3,0.43,1.37,1.11c0.01,0.09,0.01,0.17,0,0.26V19.27z"/>
</g>
<g>
</g>
<g>
</g>
<g>
</g>
<g>
</g>
<g>
</g>
<g>
</g>
</svg>
